/* XPM */
static const char * a1_xpm[] = {
"16 16 9 1",
" 	c None",
".	c #140091",
"+	c #14008E",
"@	c #130090",
"#	c #140090",
"$	c #14008F",
"%	c #13008E",
"&	c #13008D",
"*	c #13008F",
"                ",
"                ",
"                ",
"       ..       ",
"       +..      ",
"      @#+..     ",
"      ..#+..    ",
"     #...#+..   ",
"     .....#+.   ",
"    $.....%     ",
"    #...$       ",
"   %##$         ",
"   &*           ",
"                ",
"                ",
"                "};
