/* XPM */
static const char * a3_xpm[] = {
"16 16 9 1",
" 	c None",
".	c #140091",
"+	c #14008E",
"@	c #140090",
"#	c #130090",
"$	c #13008E",
"%	c #14008F",
"&	c #13008F",
"*	c #13008D",
"                ",
"                ",
"                ",
"       ..       ",
"      ..+       ",
"     ..+@#      ",
"    ..+@..      ",
"   ..+@...@     ",
"   .+@.....     ",
"     $.....%    ",
"       %...@    ",
"         %@@$   ",
"           &*   ",
"                ",
"                ",
"                "};
