/* XPM */
static const char * a7_xpm[] = {
"16 16 9 1",
" 	c None",
".	c #13008D",
"+	c #13008F",
"@	c #13008E",
"#	c #140090",
"$	c #14008F",
"%	c #140091",
"&	c #14008E",
"*	c #130090",
"                ",
"                ",
"                ",
"   .+           ",
"   @##$         ",
"    #%%%$       ",
"    $%%%%%@     ",
"     %%%%%#&%   ",
"     #%%%#&%%   ",
"      %%#&%%    ",
"      *#&%%     ",
"       &%%      ",
"       %%       ",
"                ",
"                ",
"                "};
