/* XPM */
static const char * alert_xpm[] = {
"16 16 93 2",
"  	c None",
". 	c #FEFD05",
"+ 	c #FDF803",
"@ 	c #FEFA06",
"# 	c #F9F503",
"$ 	c #FBF304",
"% 	c #FCF605",
"& 	c #FFFE10",
"* 	c #FCF504",
"= 	c #AAA503",
"- 	c #F9EE02",
"; 	c #D5D10D",
"> 	c #78781C",
", 	c #E1DC0E",
"' 	c #F2E702",
") 	c #F9EC03",
"! 	c #424123",
"~ 	c #00003F",
"{ 	c #605F2C",
"] 	c #F9EB03",
"^ 	c #9F9602",
"/ 	c #F6E301",
"( 	c #FBF109",
"_ 	c #4B4224",
": 	c #000040",
"< 	c #6B6329",
"[ 	c #FBF309",
"} 	c #EBD901",
"| 	c #F5E001",
"1 	c #FEE909",
"2 	c #7F6918",
"3 	c #A2861C",
"4 	c #FFF10B",
"5 	c #F6E001",
"6 	c #958701",
"7 	c #F3D900",
"8 	c #F9E806",
"9 	c #FFD703",
"0 	c #B3940D",
"a 	c #060643",
"b 	c #E0BB17",
"c 	c #FFDB05",
"d 	c #F9EB08",
"e 	c #E4CC00",
"f 	c #F3D500",
"g 	c #FDE507",
"h 	c #FFD302",
"i 	c #E4BC05",
"j 	c #2D2B53",
"k 	c #FCD104",
"l 	c #FEEA09",
"m 	c #F3D601",
"n 	c #8B7A00",
"o 	c #F3D200",
"p 	c #F6DD04",
"q 	c #FFD603",
"r 	c #6D634C",
"s 	c #F8E206",
"t 	c #DFC100",
"u 	c #F2CE00",
"v 	c #FCDD05",
"w 	c #DCB919",
"x 	c #FDE207",
"y 	c #F2CF00",
"z 	c #837000",
"A 	c #F1CA00",
"B 	c #F2D002",
"C 	c #B5960A",
"D 	c #453921",
"E 	c #C6A40D",
"F 	c #FFD503",
"G 	c #F5D704",
"H 	c #D8B500",
"I 	c #E4BD01",
"J 	c #F5CF03",
"K 	c #3C3223",
"L 	c #64542F",
"M 	c #FAD704",
"N 	c #746000",
"O 	c #DAB203",
"P 	c #D8B102",
"Q 	c #EAC303",
"R 	c #EEC703",
"S 	c #B79B18",
"T 	c #776A4E",
"U 	c #CFB01B",
"V 	c #EDC604",
"W 	c #D8B203",
"X 	c #B59403",
"Y 	c #C7A107",
"Z 	c #C9A206",
"` 	c #C6A007",
" .	c #7D6606",
"              .                 ",
"            + @ #               ",
"          $ % & * =             ",
"          - ; > , '             ",
"          ) ! ~ { ] ^           ",
"        / ( _ : < [ }           ",
"        | 1 2 : 3 4 5 6         ",
"      7 8 9 0 a b c d e         ",
"      f g h i j k h l m n       ",
"    o p q h h r h h 9 s t       ",
"    u v h h h w h h h x y z     ",
"  A B q h h C D E h h F G H     ",
"  I J h h h K : L h h h M I N   ",
"O P Q R R R S T U R R R V W X   ",
"  Y Z Z Z Z Z Z Z Z Z Z Z `  .  ",
"                                "};
