/* XPM */
static const char * creative_commons_xpm[] = {
"88 31 154 2",
"  	c None",
". 	c #000000",
"+ 	c #B5BAB4",
"@ 	c #B7BCB6",
"# 	c #B9BEB8",
"$ 	c #BCC1BB",
"% 	c #BEC3BE",
"& 	c #C1C5C0",
"* 	c #C3C8C3",
"= 	c #C6CAC5",
"- 	c #C8CCC7",
"; 	c #C9CDC9",
"> 	c #CBCECA",
", 	c #CCCFCB",
"' 	c #CCD0CC",
") 	c #CBCFCA",
"! 	c #CACDC9",
"~ 	c #C4C8C3",
"{ 	c #BFC3BE",
"] 	c #B9BEB9",
"^ 	c #B3B8B2",
"/ 	c #B1B7B0",
"( 	c #B0B5AF",
"_ 	c #AEB4AD",
": 	c #ADB3AC",
"< 	c #ACB2AB",
"[ 	c #ABB1AA",
"} 	c #BABFB9",
"| 	c #BDC2BC",
"1 	c #C0C4BF",
"2 	c #C3C7C2",
"3 	c #C9CDC8",
"4 	c #CED1CD",
"5 	c #D0D3CF",
"6 	c #D1D4D0",
"7 	c #D2D5D2",
"8 	c #D3D6D2",
"9 	c #D1D4D1",
"0 	c #CBCFCB",
"a 	c #C0C5BF",
"b 	c #AFB5AE",
"c 	c #C0C5C0",
"d 	c #C7CBC7",
"e 	c #848584",
"f 	c #434443",
"g 	c #0D0E0D",
"h 	c #848684",
"i 	c #CED2CE",
"j 	c #C4C9C4",
"k 	c #BDC2BD",
"l 	c #B2B8B1",
"m 	c #B0B6AF",
"n 	c #AEB3AD",
"o 	c #797C79",
"p 	c #292929",
"q 	c #CCD0CB",
"r 	c #919391",
"s 	c #1B1B1B",
"t 	c #919491",
"u 	c #C5C9C4",
"v 	c #B4B9B3",
"w 	c #B2B7B1",
"x 	c #959994",
"y 	c #282928",
"z 	c #404040",
"A 	c #707070",
"B 	c #939893",
"C 	c #505150",
"D 	c #101010",
"E 	c #606060",
"F 	c #808080",
"G 	c #BFBFBF",
"H 	c #C4C7C3",
"I 	c #CDD1CC",
"J 	c #B6BBB5",
"K 	c #A2A6A1",
"L 	c #0E0E0E",
"M 	c #505050",
"N 	c #DFDFDF",
"O 	c #FFFFFF",
"P 	c #9FA39E",
"Q 	c #EFEFEF",
"R 	c #9F9F9F",
"S 	c #BBC0BA",
"T 	c #B8BDB7",
"U 	c #918F8F",
"V 	c #5A5758",
"W 	c #303030",
"X 	c #7D7F7C",
"Y 	c #D6D5D5",
"Z 	c #323131",
"` 	c #9A9899",
" .	c #191919",
"..	c #0D0C0D",
"+.	c #767374",
"@.	c #E3E3E3",
"#.	c #C8CCC8",
"$.	c #BFC4BE",
"%.	c #292A29",
"&.	c #282526",
"*.	c #231F20",
"=.	c #3F3B3C",
"-.	c #686566",
";.	c #878687",
">.	c #ACABAB",
",.	c #CFCFCF",
"'.	c #BCC1BC",
").	c #757273",
"!.	c #787576",
"~.	c #CDD1CD",
"{.	c #BEC2BD",
"].	c #C8C7C7",
"^.	c #686768",
"/.	c #CFD3CF",
"(.	c #8F8F8F",
"_.	c #312D2E",
":.	c #BAB9B9",
"<.	c #AFAFAF",
"[.	c #BBC0BB",
"}.	c #F1F1F1",
"|.	c #9E9D9D",
"1.	c #D2D5D1",
"2.	c #202020",
"3.	c #2A2A2A",
"4.	c #7E7B7C",
"5.	c #1F1B1C",
"6.	c #666464",
"7.	c #C6CAC6",
"8.	c #7F817E",
"9.	c #848182",
"0.	c #8C8A8B",
"a.	c #A6AAA6",
"b.	c #B4BAB3",
"c.	c #A3A8A3",
"d.	c #BABFBA",
"e.	c #AFB4AE",
"f.	c #7A7D79",
"g.	c #C2C7C2",
"h.	c #C5C9C5",
"i.	c #9EA09D",
"j.	c #7C7F7C",
"k.	c #5D5E5D",
"l.	c #828582",
"m.	c #70726F",
"n.	c #D0D4D0",
"o.	c #353635",
"p.	c #CDD0CC",
"q.	c #969996",
"r.	c #323331",
"s.	c #AFB2AF",
"t.	c #B0B3AF",
"u.	c #3E3F3E",
"v.	c #898C89",
"w.	c #BCC0BC",
"  . . . . . . . . . . . . . . . . . . . . . . . . . . . . . . . . . . . . . . . . . . . . . . . . . . . . . . . . . . . . . . . . . . . . . . . . . . . . . . . . . . . . . .   ",
". . + @ # $ % & * = - ; > , ' ' , ) ! - = ~ & { $ ] @ + ^ / ( _ : : < [ [ [ [ [ [ [ [ [ [ [ [ [ [ [ [ [ [ [ [ [ [ [ [ [ [ [ [ [ [ [ [ [ [ [ [ [ [ [ [ [ [ [ [ [ [ [ [ [ [ [ . . ",
". + @ } | 1 2 = 3 ) 4 5 6 7 8 8 7 9 5 4 0 3 = 2 a | } @ + ^ / b _ : < < [ [ [ [ [ [ [ [ [ [ [ [ [ [ [ [ [ [ [ [ [ [ [ [ [ [ [ [ [ [ [ [ [ [ [ [ [ [ [ [ [ [ [ [ [ [ [ [ [ [ [ . ",
". @ } | c ~ d > 4 6 e f g . . . . g f h 6 i ) - j & k } @ + l m b n : < o p . . . . p o [ [ [ [ [ [ [ [ [ [ o p . . . . p o [ [ [ [ [ [ [ [ [ [ o p . . . . p o [ [ [ [ [ [ [ . ",
". # | c ~ - q 5 r s . . . . . . . . . . s t 5 ' 3 u & | ] @ v w m _ x y . . z A A z . . y B [ [ [ [ [ [ B y . . z A A z . . y B [ [ [ [ [ [ B y . . z A A z . . y B [ [ [ [ [ . ",
". $ 1 ~ - ' 6 C . . . D E F G G F E D . . . C H I 3 j a $ # J ^ / K L . M N O O O O N M . L B [ [ [ [ P L . M N O O O O N M . L B [ [ [ [ P L . M N O O O O N M . L B [ [ [ [ . ",
". % 2 d q 6 C . . D F Q O O O O O O O R D . . y H ' - 2 { S T + w p . E O O O . . O O O R . y [ [ [ [ y . E O O O U V O O O R . y [ [ [ [ y . E O O O O O O O O R . y [ [ [ [ . ",
". & = > 5 C . . W N O O O O O O O O O O Q W . . C 5 ) = & | # J X . M Y O O O . . O O O O M . o [ [ o . Z ` O O U  ...+.@.O O M . o [ [ o . M Y O O O O O O O O O M . o [ [ [ . ",
". * #.4 r . . W Q O O O O O O O O O O O O Q W . . t i 3 ~ $.S @ %.. N O O O O O O O O O O N . p [ [ p . &.*.=.-.. F ;.. >.O O N . p [ [ p . N O O O O O O O O O O N . p [ [ [ . ",
". = ) 6 s . D ,.O O O O O O O O O O O O O O Q D . s 6 0 = & '.# . z O O O O E . . E O O O O z . [ [ . z ).!.*.*.*.+.@.Y O O O O z . [ [ . z O O O *.*.*.*.*.*.O O O z . [ [ [ . ",
". - ~.e . . F O O O O O O O O O O O O O O O O R . . h 4 - 2 {.} . A O O O O . . . . O O O O A . [ [ . A O O ].+.. . . +.Y O O O A . [ [ . A O O O ^.^.^.^.^.^.O O O A . [ [ [ . ",
". ; /.f . D Q O O G M z z F O O G M z z (.O O O D . f 5 ! ~ $.S . A O O O O . . . . O O O O A . [ [ . A O O O O @.+._.*.*.V :.O A . [ [ . A O O O O O O O O O O O O A . [ [ [ . ",
". > 6 g . E O O G . . . . . z <.. . . . . E O O E . g 9 ) u a [.. z O O O O E . . E O O O O z . [ [ . z O O O }.|.O Y *.*.*.*.=.z . [ [ . z O O O *.*.*.*.*.*.O O O z . [ [ [ . ",
". , 1.. . (.O O W . 2.N G 2.R W . W N <.2.R O O R . . 7 , = & $ 3.. N O O O O . . O O O O N . p [ [ p . N O O V *._._.. +.>.4.5.. p [ [ p . N O O 6.6.6.6.6.6.O O N . p [ [ [ . ",
". q 8 . . G O O . . F O O O O . . F O O O O O O G . . 8 ' 7.& $ 8.. M O O O O . . O O O O M . o [ [ o . M O O @.9. ...U }.O O M . o [ [ o . M O O O O O O O O O O M . o [ [ [ . ",
". q 8 . . G O O . . F O O O O . . F O O O O O O G . . 8 ' 7.& $ T %.. E O O O . . O O O A . y [ [ [ [ y . E O O O 0.V O O O A . y [ [ [ [ y . E O O O O O O O O A . y [ [ [ [ . ",
". , 1.. . (.O O W . 2.Q ,.2.F W . W Q ,.2.F O O R . . 7 , = & $ T a.L . M N O O O O N M . L B [ [ [ [ P L . M N O O O O N M . L B [ [ [ [ P L . M N O O O O N M . L B [ [ [ [ . ",
". > 6 g . E O O <.. . . . . E <.. . . . . E O O A . g 6 > u a [.T b.c.p . . W E A W . . y B [ [ [ [ [ [ P y . . W E A W . . y B [ [ [ [ [ [ P y . . W E A W . . y B [ [ [ [ [ . ",
". ; /.C . D O O O G M z z F O O <.z z z F O O O 2.. f 5 ; ~ $.d.@ v / e.f.p . . . . p o [ [ [ [ [ [ [ [ [ [ o p . . . . p o [ [ [ [ [ [ [ [ [ [ o p . . . . p o [ [ [ [ [ [ [ . ",
". - ~.r . . (.O O O O O O O O O O O O O O O O R . . h 4 - g.{.] J ^ m _ : < [ [ [ [ [ [ [ [ [ [ [ [ [ [ [ [ [ [ [ [ [ [ [ [ [ [ [ [ [ [ [ [ [ [ [ [ [ [ [ [ [ [ [ [ [ [ [ [ [ . ",
". h.) 6 s . D N O O O O O O O O O O O O O O Q D . s 6 0 = & '.# + l m _ : < [ [ [ [ [ [ [ [ [ [ [ [ [ [ [ [ [ [ [ [ [ [ [ [ [ [ [ [ [ [ [ [ [ [ [ [ [ [ [ [ [ [ [ [ [ [ [ [ [ . ",
". * #.4 i.. . W Q O O O O O O O O O O O O Q W . . r 4 3 * { S @ v w b n < < [ [ [ [ [ [ [ [ [ [ [ [ [ [ [ [ [ [ [ [ [ [ [ [ [ [ [ [ [ [ [ [ [ [ [ [ [ [ [ [ [ [ [ [ [ [ [ [ [ . ",
". . j.> 5 k.. . W ,.O O O O O O O O O O N W . . C 5 > l.. . . . . . . . . . . . . . . . . . . . . . . . . . . . . . . . . . . . . . . . . . . . . . . . . . . . . . . . . . . . ",
". . . m., n.C . . D F Q O O O O O O Q F D . . o.6 q j.. . . . . . . . . . . . . . . . . . . . . . . . . . . . . . . . . . . . . . . . . . . . . . . . . . . . . . . . . . . . . ",
". . . . X ' n.k.. . . D E F G G F E D . . . C 6 p.q.. . . . . . . . . O O O . . O . . . O . . . . . . . . O . . . O . . O O . . . . . . . . . O . . . O . O O O . . . . . . . . ",
". . . . . X , 5 i.s . . . . . . . . . . s r 5 q q.. . . . . . . . . . O . . O . . O . O . . . . . . . . . O O . . O . O . . O . . . . . . . . O O . . O . O . . O . . . . . . . ",
". . . . . . m.> 4 6 r f g . . . . g f t 6 4 > j.. . . . . . . . . . . O O O . . . . O . . . . . . . . . . O . O . O . O . . . . . . . . . . . O . O . O . O . . O . . . . . . . ",
". . . . . . . r.s.) ~./.6 1.8 8 1.6 5 4 0 t.u.. . . . . . . . . . . . O . . O . . . O . . . . . . . . . . O . . O O . O . . O . . . . . . . . O . . O O . O . . O . . . . . . . ",
". . . . . . . . . u.v.w.> , q q , > w.v.u.. . . . . . . . . . . . . . O O O . . . . O . . . . . . . . . . O . . . O . . O O . . . . . . . . . O . . . O . O O O . . . . . . . . ",
". . . . . . . . . . . . . . . . . . . . . . . . . . . . . . . . . . . . . . . . . . . . . . . . . . . . . . . . . . . . . . . . . . . . . . . . . . . . . . . . . . . . . . . . ",
"  . . . . . . . . . . . . . . . . . . . . . . . . . . . . . . . . . . . . . . . . . . . . . . . . . . . . . . . . . . . . . . . . . . . . . . . . . . . . . . . . . . . . . .   "};
