/* XPM */
static const char * gplv3_xpm[] = {
"88 31 4 1",
" 	c None",
".	c #BC0000",
"+	c #BD0000",
"@	c #BB0000",
"                                                                                ..+.+.  ",
"        .++++++++++++++++++++++++++++++++++++++++++++++++++++++++++++++++++.+++.+     ++",
"        .++++++++++++++++++++++++++++++++++++++++++++++++++++++++++++++++.+.++         .",
"       ..+++++++++++++++++++++++++++++++++++++ ++++++++++++++++++++++......            +",
"       +++++........+++............+++...+++++ ++++++++++++++++++++.++++.              +",
"       ++.           .+.            ++   +++++ ++++++++++++++++++...+++.              + ",
"       ++   ......   .++   ......   +   .++++  +++++++++++++++++..+++.                + ",
"      ++.  .++++++.  ..   .++++++   +   +++++  .+++++++++++++.. .+++.    ++++.       +  ",
"      ++   +++++++   ++   ++++++.   +   +++++   ++++++++++++. .+++++   .+++++.      .   ",
"      ++   +++++++   ++   ++++++   .+  .+++++   +++++++++++. .+++++@ .++++++.     @+    ",
"      ++   +++++++++++   ++++++.   .+  ++++++   .+++++++++  +++++++.+++++++.     ..+    ",
"     +++  ++++++++++++   .++++++   .   ++++++   .++++++++  .++++++++++++++.        ++   ",
"     ++   .++++++++++.   ++++++.   +   +++++.    +++++++  +++++++++++++++.          +   ",
"     ++   ++++      ++   .@....   .+  ++++++.    +++++. .+++++++++++++++            .   ",
"     +.   ++++..    +@           ..+  +++++++    +++++ +++++++++++++++.            ++   ",
"    .+   +++++++   .+   .++++++++++   +++++++     .++  ++++++++++++++   ..++.      +    ",
"    .+   .+++++.   ++   +++++++++++   +++++++     ..  .++++++++++++..+++++++      +     ",
"    +.   .+++++.   +.  .++++++++++.  .+++++++     .  .+++++++++++++++++++++      ++     ",
"    ++   ++++++.   +.  .+++++++++++  ++++++++    @   .+++++++++++++++++++.      ..      ",
"   .+@  .++++++   ++   +++++++++++   +++++++++  ++   +++++++++++++++++++       ++       ",
"   ++.            ++   +++++++++++          ++  .   .+++++++++++++++++        .         ",
"   +++...........+++..++++++++++++.........+++ .     +++++++++++++++        ..          ",
"   ++....++++++++++++++++++++.++++++++++++++++ .     ++++++++++++.         ++           ",
"  ++ ..+...++..++++ . ...++   ..++.++.+.+++.+++.      ..++.....          .+             ",
"  .+  . @.  .   +++@ .@.  +. .   ..  . ..  .++++                       +..              ",
"  ++ +....  .  .++. +. .. .. .    @  +...  .++++                      +.                ",
"  +..+......+..+++.......+++.......@.+..+.++++++                    ++                  ",
" .++++++++++++++++++++++++++++++++++++++++++++++                  ++                    ",
".++++++++++++++++++++++++++++++++++++++++++++++++.             ...                      ",
"++++++++++++++++++++++++++++++++++++++++++++++++++++       @..+                         ",
"                                                   .++....+                             "};
