/* XPM */
static const char * icone_xpm[] = {
"16 16 154 2",
"  	c None",
". 	c #4B4B4B",
"+ 	c #4A4A4A",
"@ 	c #222E43",
"# 	c #5671A3",
"$ 	c #5C75A5",
"% 	c #5D76A6",
"& 	c #5E77A7",
"* 	c #5F78A8",
"= 	c #6079A9",
"- 	c #617AAA",
"; 	c #627BAB",
"> 	c #3B5FA1",
", 	c #1A4699",
"' 	c #1C489B",
") 	c #1E4A9D",
"! 	c #204C9E",
"~ 	c #224DA0",
"{ 	c #2A3343",
"] 	c #212F49",
"^ 	c #8EA9DC",
"/ 	c #97B0DF",
"( 	c #98B1E0",
"_ 	c #99B2E1",
": 	c #9AB3E2",
"< 	c #9BB4E3",
"[ 	c #9CB5E4",
"} 	c #6C92D8",
"| 	c #215AC5",
"1 	c #225BC7",
"2 	c #245DC9",
"3 	c #2760CB",
"4 	c #2962CD",
"5 	c #2C64CF",
"6 	c #2A354A",
"7 	c #202E48",
"8 	c #7F9ED8",
"9 	c #87A5DC",
"0 	c #89A6DD",
"a 	c #8AA7DE",
"b 	c #8BA8DF",
"c 	c #8CA9E0",
"d 	c #225BC6",
"e 	c #235CC8",
"f 	c #255FCA",
"g 	c #2861CC",
"h 	c #2A63CE",
"i 	c #2D66D0",
"j 	c #2F68D2",
"k 	c #293449",
"l 	c #202D47",
"m 	c #7194D5",
"n 	c #7899D8",
"o 	c #7A9BD9",
"p 	c #7B9CDB",
"q 	c #7C9EDC",
"r 	c #7195DA",
"s 	c #275FC8",
"t 	c #2E67D1",
"u 	c #3069D3",
"v 	c #336BD5",
"w 	c #283348",
"x 	c #1F2D46",
"y 	c #638AD3",
"z 	c #6A8FD5",
"A 	c #6B91D7",
"B 	c #6D92D8",
"C 	c #6E93D9",
"D 	c #356ACC",
"E 	c #255ECA",
"F 	c #2D65D0",
"G 	c #326AD4",
"H 	c #346CD6",
"I 	c #366FD8",
"J 	c #273247",
"K 	c #1E2C45",
"L 	c #5680D0",
"M 	c #5B85D3",
"N 	c #5D87D4",
"O 	c #5F88D6",
"P 	c #4A79D2",
"Q 	c #2660CB",
"R 	c #2B64CF",
"S 	c #356DD7",
"T 	c #3870D9",
"U 	c #3A72DB",
"V 	c #263146",
"W 	c #1E2B44",
"X 	c #4977CF",
"Y 	c #4E7BD1",
"Z 	c #507DD2",
"` 	c #507ED4",
" .	c #2D64CD",
"..	c #316AD4",
"+.	c #3971DA",
"@.	c #3B73DC",
"#.	c #3E76DE",
"$.	c #253045",
"%.	c #1D2A43",
"&.	c #3D6FCD",
"*.	c #4172CF",
"=.	c #4374D1",
"-.	c #3B6FD1",
";.	c #2E66D1",
">.	c #3C74DD",
",.	c #3F77DF",
"'.	c #4179E1",
").	c #242F44",
"!.	c #1C2942",
"~.	c #3167CC",
"{.	c #346ACE",
"].	c #366CD0",
"^.	c #2F67D0",
"/.	c #2F67D2",
"(.	c #366ED8",
"_.	c #3E75DE",
":.	c #4078E0",
"<.	c #437AE2",
"[.	c #457CE4",
"}.	c #232E43",
"|.	c #1C222E",
"1.	c #284376",
"2.	c #2A4477",
"3.	c #2B4678",
"4.	c #2B4679",
"5.	c #2C477A",
"6.	c #2D4B7A",
"7.	c #2E4A7B",
"8.	c #304A7C",
"9.	c #314C7E",
"0.	c #324D7F",
"a.	c #334E80",
"b.	c #354F81",
"c.	c #365082",
"d.	c #375183",
"e.	c #1F252F",
"f.	c #191919",
"g.	c #1B1B1B",
"h.	c #1A1C1A",
"i.	c #154515",
"j.	c #393C39",
"k.	c #424242",
"l.	c #181818",
"m.	c #151515",
"n.	c #353535",
"o.	c #1C1C1C",
"p.	c #161616",
"q.	c #272727",
"r.	c #242424",
"s.	c #2D2D2D",
"t.	c #262626",
"u.	c #222222",
"v.	c #1F1F1F",
"w.	c #101010",
"  . . . + + + + + + + + + + +   ",
"@ # $ % & * = - ; > , ' ) ! ~ { ",
"] ^ / ( _ : < [ } | 1 2 3 4 5 6 ",
"7 8 9 0 a b c } d e f g h i j k ",
"l m n o p q r s 2 3 4 5 t u v w ",
"x y z A B C D E g h F j G H I J ",
"K L M N O P Q 4 R t u v S T U V ",
"W X Y Z `  .h F j ..H I +.@.#.$.",
"%.&.*.=.-.R ;.u v S T U >.,.'.).",
"!.~.{.].^./...H (.+.@._.:.<.[.}.",
"|.1.2.3.4.5.6.7.8.9.0.a.b.c.d.e.",
"f.g.g.g.g.h.i.j.k.g.g.g.g.g.g.l.",
"              m.m.              ",
"            n.o.p.q.            ",
"          r.s.t.u.r.v.          ",
"          w.p.p.p.p.w.          "};
