/* XPM */
static const char * tray4_xpm[] = {
"16 16 225 2",
"  	c None",
". 	c #4B4B4B",
"+ 	c #58604D",
"@ 	c #55726F",
"# 	c #4B7690",
"$ 	c #547F87",
"% 	c #557975",
"& 	c #50716B",
"* 	c #425A69",
"= 	c #565F4C",
"- 	c #4A4A4A",
"; 	c #222E43",
"> 	c #5671A3",
", 	c #5A74A4",
"' 	c #476F9F",
") 	c #7FAA80",
"! 	c #8DB689",
"~ 	c #8FB796",
"{ 	c #90B897",
"] 	c #7BA9A8",
"^ 	c #77A57C",
"/ 	c #3C709A",
"( 	c #31628C",
"_ 	c #3B6975",
": 	c #234F9A",
"< 	c #224DA0",
"[ 	c #2A3343",
"} 	c #212F49",
"| 	c #8CA8DB",
"1 	c #729DCF",
"2 	c #72A9D9",
"3 	c #A4CDB4",
"4 	c #BDDCAD",
"5 	c #BBDABB",
"6 	c #A7CEDE",
"7 	c #95C1C3",
"8 	c #5B98C5",
"9 	c #4282CB",
"0 	c #336FBD",
"a 	c #3F7790",
"b 	c #4A838A",
"c 	c #2B63CC",
"d 	c #2A354A",
"e 	c #202E48",
"f 	c #668FC9",
"g 	c #669ED2",
"h 	c #80B6D9",
"i 	c #B6D7B1",
"j 	c #BDDAB9",
"k 	c #BED9C4",
"l 	c #AFCFC2",
"m 	c #90B9AF",
"n 	c #76A9C2",
"o 	c #4E8FD7",
"p 	c #3E7DCB",
"q 	c #2B63B3",
"r 	c #3F7689",
"s 	c #3C73A0",
"t 	c #293449",
"u 	c #212F46",
"v 	c #5287C2",
"w 	c #68A3D9",
"x 	c #9AC5BC",
"y 	c #B6D5B7",
"z 	c #BBD6C2",
"A 	c #B8D2CB",
"B 	c #99BBC6",
"C 	c #8FB6CB",
"D 	c #75A7E2",
"E 	c #5A98DC",
"F 	c #4485D1",
"G 	c #3470BD",
"H 	c #2357A3",
"I 	c #5F9A75",
"J 	c #37463C",
"K 	c #223C5A",
"L 	c #5088C5",
"M 	c #65A2DA",
"N 	c #8EBECC",
"O 	c #B1D1B9",
"P 	c #B7D2C6",
"Q 	c #A3C1CB",
"R 	c #9CBBCF",
"S 	c #91B5E8",
"T 	c #7DADE7",
"U 	c #609EDF",
"V 	c #4C91D8",
"W 	c #3876C2",
"X 	c #2457A8",
"Y 	c #59937A",
"Z 	c #516E3B",
"` 	c #1F426B",
" .	c #4A84C4",
"..	c #5D9CD8",
"+.	c #7AB1D9",
"@.	c #A8CBBB",
"#.	c #A2C3D0",
"$.	c #97B8E1",
"%.	c #98B9DF",
"&.	c #8DB5E9",
"*.	c #7BAEE8",
"=.	c #609FE1",
"-.	c #4B90D8",
";.	c #3A79C4",
">.	c #2559A9",
",.	c #548D7F",
"'.	c #658B41",
").	c #1C406D",
"!.	c #417BBE",
"~.	c #508ED0",
"{.	c #62A0DC",
"].	c #90BDC3",
"^.	c #90B8C7",
"/.	c #8FB6D6",
"(.	c #8BB4DF",
"_.	c #83B1DF",
":.	c #6EA8E4",
"<.	c #589CDF",
"[.	c #478BD4",
"}.	c #3774BF",
"|.	c #2356A6",
"1.	c #3C6F8D",
"2.	c #698F4C",
"3.	c #173A67",
"4.	c #346DB5",
"5.	c #4584C8",
"6.	c #5090D3",
"7.	c #5B9AD8",
"8.	c #6CA6D5",
"9.	c #85B4C4",
"0.	c #72A9E4",
"a.	c #71AAD6",
"b.	c #64A3D0",
"c.	c #4182CC",
"d.	c #306AB7",
"e.	c #2053A2",
"f.	c #1E4C9E",
"g.	c #375A7A",
"h.	c #18365E",
"i.	c #255BA7",
"j.	c #356FBA",
"k.	c #3D78C3",
"l.	c #4282CD",
"m.	c #4A8CD4",
"n.	c #5698D8",
"o.	c #65A2C6",
"p.	c #7DB18C",
"q.	c #72AA81",
"r.	c #5B9994",
"s.	c #407CAF",
"t.	c #285DAB",
"u.	c #1D4C9C",
"v.	c #2555A7",
"w.	c #3B5F85",
"x.	c #20354C",
"y.	c #184078",
"z.	c #234E86",
"A.	c #2C5891",
"B.	c #36679D",
"C.	c #3B6FA3",
"D.	c #4077A9",
"E.	c #598B70",
"F.	c #63924F",
"G.	c #5F904C",
"H.	c #5C8D49",
"I.	c #518056",
"J.	c #4B7760",
"K.	c #214575",
"L.	c #2E558E",
"M.	c #39526A",
"N.	c #1C2024",
"O.	c #244363",
"P.	c #102B4F",
"Q.	c #183559",
"R.	c #214364",
"S.	c #264B6B",
"T.	c #27606C",
"U.	c #4A7053",
"V.	c #628830",
"W.	c #4F741E",
"X.	c #4D701E",
"Y.	c #557825",
"Z.	c #46663B",
"`.	c #1E3C5F",
" +	c #3D5E7D",
".+	c #252E33",
"++	c #395B75",
"@+	c #26537F",
"#+	c #0B2F60",
"$+	c #092D5D",
"%+	c #0F3464",
"&+	c #123A68",
"*+	c #163552",
"=+	c #35552F",
"-+	c #649025",
";+	c #759E31",
">+	c #77A04A",
",+	c #3F6D75",
"'+	c #45799F",
")+	c #557E98",
"!+	c #3E7CB1",
"~+	c #1B4F8A",
"{+	c #0C376F",
"]+	c #14315A",
"^+	c #0D254A",
"/+	c #3A543D",
"(+	c #7D9C45",
"_+	c #A0C86E",
":+	c #4E94B0",
"<+	c #63A7CF",
"[+	c #528CB3",
"}+	c #365C7C",
"|+	c #2B486A",
"1+	c #233D5F",
"2+	c #667E4C",
"3+	c #5D755D",
"4+	c #467186",
"5+	c #74ACC0",
"6+	c #365160",
"7+	c #3A566C",
"8+	c #38536D",
"9+	c #3F5866",
"0+	c #364F62",
"a+	c #344955",
"b+	c #151D21",
"  . . . + @ # $ % & * = - - -   ",
"; > , ' ) ! ~ { ] ^ / ( _ : < [ ",
"} | 1 2 3 4 5 6 7 8 9 0 a b c d ",
"e f g h i j k l m n o p q r s t ",
"u v w x y z A B C D E F G H I J ",
"K L M N O P Q R S T U V W X Y Z ",
"`  ...+.@.#.$.%.&.*.=.-.;.>.,.'.",
").!.~.{.].^./.(._.:.<.[.}.|.1.2.",
"3.4.5.6.7.8.9.0.a.b.V c.d.e.f.g.",
"h.i.j.k.l.m.n.o.p.q.r.s.t.u.v.w.",
"x.y.z.A.B.C.D.E.F.G.H.I.J.K.L.M.",
"N.O.P.Q.R.S.T.U.V.W.X.Y.Z.`. +.+",
"  ++@+#+$+%+&+*+=+-+;+>+,+'+)+  ",
"      !+~+{+]+^+/+(+_+:+<+      ",
"        [+}+|+1+2+3+4+5+        ",
"          6+7+8+9+0+a+b+        "};
