/* XPM */
static const char * tray2_xpm[] = {
"16 16 213 2",
"  	c None",
". 	c #4B4B4B",
"+ 	c #4F514B",
"@ 	c #4E5756",
"# 	c #4A5962",
"$ 	c #4D5D60",
"% 	c #4E5B5A",
"& 	c #4C5755",
"* 	c #474F54",
"= 	c #4E514B",
"- 	c #4A4A4A",
"; 	c #222E43",
"> 	c #5671A3",
", 	c #5B75A5",
"' 	c #5574A4",
") 	c #69889A",
"! 	c #6E8C9D",
"~ 	c #708EA2",
"{ 	c #718FA3",
"] 	c #6A8AAA",
"^ 	c #4F7694",
"/ 	c #255499",
"( 	c #235196",
"_ 	c #28548F",
": 	c #214D9D",
"< 	c #224DA0",
"[ 	c #2A3343",
"} 	c #212F49",
"| 	c #8DA9DC",
"1 	c #8BA9D9",
"2 	c #8BAEDD",
"3 	c #9DBBD2",
"4 	c #A5C0D0",
"5 	c #A5C0D5",
"6 	c #A0BDE1",
"7 	c #7AA1D0",
"8 	c #346EC5",
"9 	c #2C68C8",
"0 	c #2963C5",
"a 	c #2F67B7",
"b 	c #346DB6",
"c 	c #2B64CE",
"d 	c #2A354A",
"e 	c #202E48",
"f 	c #7699D3",
"g 	c #7CA2D8",
"h 	c #86ABDB",
"i 	c #98B7CE",
"j 	c #9BB8D2",
"k 	c #9CB9D6",
"l 	c #82A6D1",
"m 	c #467ABE",
"n 	c #3E76C5",
"o 	c #336FCE",
"p 	c #2F6ACB",
"q 	c #2A63C5",
"r 	c #336BB8",
"s 	c #336BC1",
"t 	c #293449",
"u 	c #202E47",
"v 	c #668FCF",
"w 	c #729CD8",
"x 	c #84A9CF",
"y 	c #8EAFCE",
"z 	c #91B0D3",
"A 	c #88A9D4",
"B 	c #4D7DC7",
"C 	c #487AC9",
"D 	c #4177D2",
"E 	c #3974D2",
"F 	c #336FCF",
"G 	c #3069CA",
"H 	c #2C63C2",
"I 	c #417AB5",
"J 	c #2D3944",
"K 	c #20314D",
"L 	c #5C89CE",
"M 	c #6895D7",
"N 	c #769FD3",
"O 	c #83A7CD",
"P 	c #86A8D2",
"Q 	c #5A86CB",
"R 	c #4C7DCB",
"S 	c #4A7DD5",
"T 	c #467BD6",
"U 	c #3D78D5",
"V 	c #3875D4",
"W 	c #346ECE",
"X 	c #2E65C6",
"Y 	c #427AB8",
"Z 	c #354643",
"` 	c #1E3352",
" .	c #5281CC",
"..	c #5C8CD4",
"+.	c #6694D6",
"@.	c #779ECC",
"#.	c #6791D1",
"$.	c #4C7DD2",
"%.	c #4E7FD3",
"&.	c #4C7FD7",
"*.	c #477ED8",
"=.	c #407BD7",
"-.	c #3B77D6",
";.	c #3771D0",
">.	c #3168C9",
",.	c #437BBC",
"'.	c #3B4F44",
").	c #1D3252",
"!.	c #4678C9",
"~.	c #4E81D0",
"{.	c #5689D5",
"].	c #6593CE",
"^.	c #4E80CB",
"/.	c #4B7ED0",
"(.	c #4C7FD5",
"_.	c #4B80D6",
":.	c #457ED9",
"<.	c #407CD9",
"[.	c #3C78D6",
"}.	c #3872D1",
"|.	c #3369CA",
"1.	c #3D73C3",
"2.	c #3D5147",
"3.	c #1B2F4F",
"4.	c #3A6EC5",
"5.	c #4278CD",
"6.	c #477DD2",
"7.	c #457DD3",
"8.	c #417AD1",
"9.	c #4A80CC",
"0.	c #467ED8",
"a.	c #4780D5",
"b.	c #447FD4",
"c.	c #3E7AD8",
"d.	c #3C77D6",
"e.	c #3871D0",
"f.	c #346ACA",
"g.	c #356ACA",
"h.	c #2B3E57",
"i.	c #1A2D4B",
"j.	c #2C62BF",
"k.	c #346BC7",
"l.	c #386FCB",
"m.	c #3570CF",
"n.	c #3873D2",
"o.	c #3D79D5",
"p.	c #447ED0",
"q.	c #4E84BE",
"r.	c #4C84BC",
"s.	c #457FC4",
"t.	c #3E77CE",
"u.	c #386FCE",
"v.	c #356BCB",
"w.	c #3A6FCF",
"x.	c #2B3E59",
"y.	c #1D2838",
"z.	c #234276",
"A.	c #27477B",
"B.	c #2B4B80",
"C.	c #2E5185",
"D.	c #315487",
"E.	c #335989",
"F.	c #3C5F77",
"G.	c #40626D",
"H.	c #3D5E71",
"I.	c #3C5C75",
"J.	c #2E4C7D",
"K.	c #345286",
"L.	c #283442",
"M.	c #1A1B1C",
"N.	c #1D2832",
"O.	c #17202C",
"P.	c #19232F",
"Q.	c #1C2833",
"R.	c #1E2B35",
"S.	c #1B4D32",
"T.	c #3E4D41",
"U.	c #4C593B",
"V.	c #2C381B",
"W.	c #2B371B",
"X.	c #2E391E",
"Y.	c #293325",
"Z.	c #1B2631",
"`.	c #26313B",
" +	c #1D2021",
".+	c #1D3349",
"++	c #102139",
"@+	c #0F2038",
"#+	c #11243C",
"$+	c #12273D",
"%+	c #15202A",
"&+	c #202B1D",
"*+	c #3B511C",
"=+	c #445823",
"-+	c #45592F",
";+	c #294044",
">+	c #2C4659",
",+	c #283343",
"'+	c #171F2B",
")+	c #222B23",
"!+	c #485332",
"~+	c #2A3843",
"{+	c #2C3641",
"]+	c #252D39",
"^+	c #394030",
"/+	c #373F37",
"(+	c #2D3D44",
"_+	c #1E282E",
":+	c #222C33",
"<+	c #222B34",
"[+	c #242D31",
"}+	c #212A30",
"|+	c #1E262B",
"  . . . + @ # $ % & * = - - -   ",
"; > , ' ) ! ~ { ] ^ / ( _ : < [ ",
"} | 1 2 3 4 5 6 7 8 9 0 a b c d ",
"e f g h i j k l m n o p q r s t ",
"u v w x y z A B C D E F G H I J ",
"K L M N O P Q R S T U V W X Y Z ",
"`  ...+.@.#.$.%.&.*.=.-.;.>.,.'.",
").!.~.{.].^./.(._.:.<.[.}.|.1.2.",
"3.4.5.6.7.8.9.0.a.b.c.d.e.f.g.h.",
"i.j.k.l.m.n.o.p.q.r.s.t.u.v.w.x.",
"y.z.A.B.C.D.E.F.G.G.G.H.I.J.K.L.",
"M.N.O.P.Q.R.S.T.U.V.W.X.Y.Z.`. +",
"    .+++@+#+$+%+&+*+=+-+;+>+    ",
"            ,+'+)+!+            ",
"          ~+{+]+^+/+(+          ",
"          _+:+<+[+}+|+          "};
