/* XPM */
static const char * tray6_xpm[] = {
"16 16 228 2",
"  	c None",
". 	c #4B4B4B",
"+ 	c #626F4F",
"@ 	c #5D8F89",
"# 	c #4D92BC",
"$ 	c #5A9CAA",
"% 	c #5B948D",
"& 	c #558A80",
"* 	c #3D667E",
"= 	c #5F6F4E",
"- 	c #4A4A4A",
"; 	c #222E43",
"> 	c #5671A3",
", 	c #5873A3",
"' 	c #386A9B",
") 	c #98CF65",
"! 	c #AEE174",
"~ 	c #B1E389",
"{ 	c #B2E48A",
"] 	c #8DCBA6",
"^ 	c #A1D863",
"/ 	c #548F9C",
"( 	c #407683",
"_ 	c #50805A",
": 	c #255197",
"< 	c #224DA0",
"[ 	c #2A3343",
"} 	c #212F49",
"| 	c #8BA7DA",
"1 	c #5990C3",
"2 	c #59A5D5",
"3 	c #ADE095",
"4 	c #D6FA8A",
"5 	c #D2F6A0",
"6 	c #AFE0DB",
"7 	c #B3E3B6",
"8 	c #85C4C6",
"9 	c #599ED0",
"0 	c #3E7BB6",
"a 	c #518868",
"b 	c #619B5D",
"c 	c #2A63CA",
"d 	c #2A354A",
"e 	c #202E48",
"f 	c #5485BF",
"g 	c #509ACC",
"h 	c #7BC2D8",
"i 	c #D6F993",
"j 	c #E0FDA0",
"k 	c #E1FBB2",
"l 	c #DEFAB4",
"m 	c #DEFCA0",
"n 	c #B2E0BE",
"o 	c #6CB3E1",
"p 	c #4E92CA",
"q 	c #2D64A1",
"r 	c #4D8358",
"s 	c #457B7E",
"t 	c #293449",
"u 	c #223146",
"v 	c #3D7FB5",
"w 	c #5DAADA",
"x 	c #B2E3A8",
"y 	c #E0FD9E",
"z 	c #E7FFB0",
"A 	c #EAFEC1",
"B 	c #E9FCC6",
"C 	c #DBF5CE",
"D 	c #ADDAF3",
"E 	c #7DBFE8",
"F 	c #569DD3",
"G 	c #3977B0",
"H 	c #1B4B81",
"I 	c #7FBB33",
"J 	c #415333",
"K 	c #244769",
"L 	c #4388BC",
"M 	c #63B0DF",
"N 	c #A7DEC6",
"O 	c #E2FEA5",
"P 	c #EAFFB9",
"Q 	c #F1FFCB",
"R 	c #EFFDD4",
"S 	c #DBF1FC",
"T 	c #B8E2F9",
"U 	c #85C6EB",
"V 	c #61AFDE",
"W 	c #3E7FB7",
"X 	c #194A88",
"Y 	c #72AD39",
"Z 	c #6F9932",
"` 	c #205286",
" .	c #4287BC",
"..	c #5FADDC",
"+.	c #8ECFDD",
"@.	c #DBFAA9",
"#.	c #E1F8D0",
"$.	c #E6F6F1",
"%.	c #E6F7ED",
"&.	c #D2EEFD",
"*.	c #B1E0F9",
"=.	c #81C6EC",
"-.	c #5DABDB",
";.	c #3F82B8",
">.	c #68A03F",
",.	c #90C83E",
"'.	c #1B508A",
").	c #3C7EB4",
"!.	c #539DD0",
"~.	c #70B9E4",
"{.	c #BDEAB8",
"].	c #D6F4C5",
"^.	c #D6F1DD",
"/.	c #CDECEB",
"(.	c #BEE5E9",
"_.	c #9AD5F1",
":.	c #72BDE6",
"<.	c #54A0D2",
"[.	c #3677AD",
"}.	c #134382",
"|.	c #3B6B55",
"1.	c #92C951",
"2.	c #144580",
"3.	c #2F6DA5",
"4.	c #4991C4",
"5.	c #5BA5D6",
"6.	c #73B9DE",
"7.	c #9AD4DB",
"8.	c #C3EBBC",
"9.	c #A0D7F1",
"0.	c #9ED7D7",
"a.	c #85C9CC",
"b.	c #5CA9D8",
"c.	c #478EC2",
"d.	c #29649C",
"e.	c #0B3A78",
"f.	c #062E6F",
"g.	c #44759B",
"h.	c #154073",
"i.	c #1D538E",
"j.	c #3674AD",
"k.	c #4281BB",
"l.	c #5095CB",
"m.	c #5FA6D7",
"n.	c #71B9DB",
"o.	c #89C9BB",
"p.	c #B0E058",
"q.	c #9CD343",
"r.	c #72B462",
"s.	c #43828F",
"t.	c #184B87",
"u.	c #032D6D",
"v.	c #103B7C",
"w.	c #4D80B2",
"x.	c #244261",
"y.	c #0E3E7A",
"z.	c #1F5691",
"A.	c #2E66A3",
"B.	c #3E7EB7",
"C.	c #478BC1",
"D.	c #4E97CA",
"E.	c #78B969",
"F.	c #88C631",
"G.	c #80C02A",
"H.	c #7ABA25",
"I.	c #67A439",
"J.	c #5B934A",
"K.	c #133E6D",
"L.	c #295997",
"M.	c #4C7394",
"N.	c #1E252C",
"O.	c #2B6096",
"P.	c #093774",
"Q.	c #164985",
"R.	c #265F99",
"S.	c #306DA5",
"T.	c #3473AA",
"U.	c #579567",
"V.	c #79BA24",
"W.	c #74B322",
"X.	c #71AD21",
"Y.	c #7FB92C",
"Z.	c #669B52",
"`.	c #215590",
" +	c #568FC2",
".+	c #2F3D46",
"++	c #497BA1",
"@+	c #2B649C",
"#+	c #093674",
"$+	c #063371",
"%+	c #0D3D7A",
"&+	c #12437F",
"*+	c #184978",
"=+	c #4A8040",
"-+	c #7AB229",
";+	c #8FC339",
">+	c #92C559",
",+	c #4B858F",
"'+	c #5294C5",
")+	c #6FA9CD",
"!+	c #65A6D2",
"~+	c #3E7CB1",
"{+	c #0B3976",
"]+	c #05306D",
"^+	c #032B6A",
"/+	c #548058",
"(+	c #A9D655",
"_+	c #ACD875",
":+	c #4F94B0",
"<+	c #63A7CF",
"[+	c #7CBCE1",
"}+	c #5E94B6",
"|+	c #5E9FCB",
"1+	c #417EAF",
"2+	c #2B5C94",
"3+	c #224D87",
"4+	c #97BE6A",
"5+	c #85AF86",
"6+	c #5CA1C1",
"7+	c #85C4DA",
"8+	c #6790A6",
"9+	c #4C748C",
"0+	c #527FA3",
"a+	c #4F7CA6",
"b+	c #59849A",
"c+	c #4B7392",
"d+	c #466576",
"e+	c #1B252A",
"  . . . + @ # $ % & * = - - -   ",
"; > , ' ) ! ~ { ] ^ / ( _ : < [ ",
"} | 1 2 3 4 5 6 7 8 9 0 a b c d ",
"e f g h i j k l m n o p q r s t ",
"u v w x y z A B C D E F G H I J ",
"K L M N O P Q R S T U V W X Y Z ",
"`  ...+.@.#.$.%.&.*.=.-.;.X >.,.",
"'.).!.~.{.].^./.(._.:.<.[.}.|.1.",
"2.3.4.5.6.7.8.9.0.a.b.c.d.e.f.g.",
"h.i.j.k.l.m.n.o.p.q.r.s.t.u.v.w.",
"x.y.z.A.B.C.D.E.F.G.H.I.J.K.L.M.",
"N.O.P.Q.R.S.T.U.V.W.X.Y.Z.`. +.+",
"  ++@+#+$+%+&+*+=+-+;+>+,+'+)+  ",
"    !+~+'.{+]+^+/+(+_+:+<+[+    ",
"      }+|+1+2+3+4+5+6+7+8+      ",
"          9+0+a+b+c+d+e+        "};
